<?xml version="1.0" standalone="no"?>
<!DOCTYPE svg PUBLIC "-//W3C//DTD SVG 20010904//EN"
 "http://www.w3.org/TR/2001/REC-SVG-20010904/DTD/svg10.dtd">
<svg version="1.0" xmlns="http://www.w3.org/2000/svg"
 width="300.000000pt" height="300.000000pt" viewBox="0 0 300.000000 300.000000"
 preserveAspectRatio="xMidYMid meet">
<metadata>
Created by potrace 1.11, written by Peter Selinger 2001-2013
</metadata>
<g transform="translate(0.000000,300.000000) scale(0.100000,-0.100000)"
fill="#000000" stroke="none">
<path d="M1442 2702 c-9 -3 -12 -39 -11 -133 l1 -129 31 -1 c66 -2 109 0 114
4 4 5 5 42 4 202 l-1 60 -63 1 c-35 0 -69 -2 -75 -4z"/>
<path d="M994 2607 c-58 -31 -76 -48 -65 -61 4 -6 27 -47 50 -91 22 -44 49
-92 58 -107 l18 -26 62 35 c70 39 69 34 13 133 -14 25 -37 66 -50 93 -14 26
-29 47 -35 46 -5 0 -28 -10 -51 -22z"/>
<path d="M1939 2608 c-65 -124 -103 -195 -110 -204 -5 -6 16 -24 60 -47 l68
-37 16 33 c9 17 34 64 56 104 60 110 60 105 -8 142 -32 17 -61 31 -65 31 -3 0
-11 -10 -17 -22z"/>
<path d="M591 2266 c-22 -31 -41 -59 -41 -63 0 -4 32 -30 71 -58 38 -27 89
-64 113 -82 l43 -32 19 22 c32 37 64 84 64 95 0 6 -46 43 -102 83 -57 40 -108
76 -114 81 -7 5 -26 -11 -53 -46z"/>
<path d="M2260 2238 c-63 -44 -117 -82 -118 -84 -2 -1 15 -29 38 -62 l43 -60
26 16 c38 24 164 114 178 128 7 7 18 14 25 16 7 3 -4 27 -32 66 -23 34 -44 62
-44 62 -1 0 -54 -37 -116 -82z"/>
<path d="M1429 2286 c-2 -2 -26 -7 -52 -10 -174 -23 -351 -148 -425 -299 -18
-38 -35 -77 -37 -88 -2 -11 -7 -30 -11 -41 -10 -31 -13 -67 -14 -143 -1 -83 5
-128 30 -204 28 -88 54 -141 154 -311 66 -111 109 -212 119 -280 12 -75 8 -72
82 -72 79 0 75 -2 70 50 -11 118 -68 255 -188 458 -107 179 -134 288 -113 444
8 58 57 157 98 201 89 94 196 139 338 145 153 6 270 -36 365 -129 81 -81 125
-186 125 -302 0 -57 -19 -154 -39 -200 -21 -48 -78 -155 -113 -214 -98 -159
-145 -277 -155 -382 l-5 -67 44 -3 c79 -7 101 2 104 38 6 86 49 186 152 361
74 125 105 191 132 277 24 78 32 202 18 289 -44 284 -270 470 -584 482 -50 2
-93 2 -95 0z"/>
<path d="M447 1792 c-14 -3 -17 -16 -17 -73 0 -38 3 -70 8 -70 20 -3 278 -5
287 -2 10 3 11 130 1 140 -6 6 -251 10 -279 5z"/>
<path d="M2286 1788 c-14 -8 -21 -137 -8 -139 24 -4 292 -4 293 1 5 17 4 140
-1 141 -36 5 -275 2 -284 -3z"/>
<path d="M745 1377 c-11 -7 -66 -33 -122 -57 -57 -24 -103 -46 -103 -50 0 -7
49 -121 56 -128 2 -3 84 31 201 84 28 13 54 28 57 33 8 12 -46 130 -59 131 -6
0 -19 -6 -30 -13z"/>
<path d="M2211 1358 c-5 -13 -16 -40 -25 -62 -9 -21 -16 -42 -16 -46 0 -7 241
-110 257 -110 4 0 20 30 35 66 l26 65 -41 19 c-46 21 -217 90 -224 90 -2 0 -7
-10 -12 -22z"/>
<path d="M1270 758 c-23 -8 -39 -38 -32 -58 14 -44 20 -45 249 -44 120 1 228
2 240 3 47 3 55 82 10 97 -28 10 -442 11 -467 2z"/>
<path d="M1281 578 c-42 -15 -44 -75 -4 -96 10 -5 116 -9 236 -8 204 1 220 2
233 20 18 25 18 47 0 71 -13 18 -29 19 -230 20 -119 0 -225 -3 -235 -7z"/>
<path d="M1310 403 c0 -7 59 -63 96 -92 21 -17 41 -21 94 -21 64 0 71 2 117
39 104 83 110 79 -112 79 -107 0 -195 -3 -195 -5z"/>
</g>
</svg>
